<?xml version="1.0" encoding="UTF-8"?><svg id="Layer_1" xmlns="http://www.w3.org/2000/svg" viewBox="0 0 104 102"><defs><style>.cls-1{fill:#a775f1;}</style></defs><path class="cls-1" d="m104,102v-42.27h-19.89c0-5.87.69-11.18,2.07-15.93,1.38-4.75,3.42-9.29,6.12-13.61,2.7-4.32,6.6-7.93,11.69-10.81V0c-9.76,4.27-17.71,9.87-23.86,16.81-6.15,6.94-10.71,14.55-13.68,22.82-2.97,8.27-4.46,20.31-4.46,36.11v26.26h42Zm-62,0v-42.27h-19.89c0-5.87.69-11.18,2.07-15.93,1.38-4.75,3.42-9.29,6.12-13.61,2.7-4.32,6.6-7.93,11.69-10.81V0c-9.65,4.27-17.58,9.87-23.78,16.81-6.21,6.94-10.79,14.55-13.76,22.82C1.49,47.9,0,59.94,0,75.74v26.26h42Z"/></svg>